# xmcd
#
# Track frame offsets:
#	150
#	9867
#	22697
#	34300
#	55173
#	66098
#	81249
#	101172
#	109414
#	117905
#	130123
#	141740
#	159096
#	167952
#	178472
#	191499
#	207887
#	221521
#	238272
#	257444
#	268562
#	280675
#	293990
#	305380
#	315637
#
# Disc length: 4625 seconds
#
# Revision: 1
# Processed by: cddbd v1.5.2PL0 Copyright (c) Steve Scherf et al.
# Submitted via: audiograbber 1.83.01
#
DISCID=6e120f19
DTITLE=Johnny Cash - Unsurpassed "American" Masters"
DYEAR=1995
DGENRE=Country
TTITLE0=What on Earth
TTITLE1=The Drifter
TTITLE2=I witnessed a crime
TTITLE3=Banks of the Ohio
TTITLE4=The next time I´m in town
TTITLE5=Breaking bread
TTITLE6=To beat the Devil
TTITLE7=Friends in California
TTITLE8=The Caretaker
TTITLE9=The wonder of you
TTITLE10=East Virginia Blues
TTITLE11=Bury me not - take 2
TTITLE12=Old chunk of coal
TTITLE13=Go on Blues
TTITLE14=If I give my soul
TTITLE15=Thirteen
TTITLE16=Folsom Prison Blues
TTITLE17=Ring of fire (feat. John Mellencamp)
TTITLE18=In your mind (from Dead Man Walking)
TTITLE19=Flesh and Blood
TTITLE20=Thanksgiving (from Dr.Quinn_1995)
TTITLE21=Bad news
TTITLE22=All of God´s children ain´t free
TTITLE23=One more ride
TTITLE24=The Little Drummer Boy (with Neil Young)
EXTD=
EXTT0=
EXTT1=
EXTT2=
EXTT3=
EXTT4=
EXTT5=
EXTT6=
EXTT7=
EXTT8=
EXTT9=
EXTT10=
EXTT11=
EXTT12=
EXTT13=
EXTT14=
EXTT15=
EXTT16=
EXTT17=
EXTT18=
EXTT19=
EXTT20=
EXTT21=
EXTT22=
EXTT23=
EXTT24=
PLAYORDER=
